<svg width="31" height="26" viewBox="0 0 31 26" fill="none" xmlns="http://www.w3.org/2000/svg">
<path d="M20.9503 3.32505C19.8102 3.32486 18.7157 3.77223 17.9021 4.5709C17.0886 5.36957 16.6211 6.45569 16.6003 7.59555L16.5583 9.95805C16.5558 10.0849 16.5266 10.2098 16.4724 10.3245C16.4183 10.4393 16.3406 10.5413 16.2442 10.6239C16.1479 10.7064 16.0352 10.7677 15.9136 10.8037C15.7919 10.8397 15.664 10.8495 15.5383 10.8326L13.1968 10.5146C10.1158 10.0946 7.16377 8.67555 4.33177 6.31605C3.43477 11.281 5.18677 14.7206 9.40627 17.3741L12.0268 19.021C12.1513 19.0993 12.2547 19.2069 12.328 19.3343C12.4014 19.4618 12.4423 19.6053 12.4474 19.7523C12.4524 19.8992 12.4213 20.0452 12.3569 20.1774C12.2925 20.3096 12.1966 20.424 12.0778 20.5105L9.68977 22.2551C11.1103 22.3435 12.4588 22.2805 13.5778 22.0585C20.6548 20.6455 25.3603 15.3205 25.3603 6.53655C25.3603 5.81955 23.8423 3.32505 20.9503 3.32505ZM13.6003 7.54005C13.6265 6.09412 14.0786 4.68805 14.9001 3.49788C15.7216 2.30771 16.876 1.38633 18.2186 0.8491C19.5613 0.311871 21.0326 0.182669 22.4484 0.477671C23.8641 0.772672 25.1614 1.47877 26.1778 2.50755C27.2443 2.50005 28.1518 2.77005 30.1813 1.54005C29.6788 4.00005 29.4313 5.06805 28.3603 6.53655C28.3603 17.9995 21.3148 23.5735 14.1658 25C9.26377 25.9781 2.13577 24.3715 0.0927734 22.2386C1.13377 22.1576 5.36377 21.703 7.80877 19.9135C5.74027 18.55 -2.49323 13.705 2.91727 0.67905C5.45677 3.64455 8.03227 5.66355 10.6423 6.73455C12.3793 7.44705 12.8053 7.43205 13.6018 7.54155L13.6003 7.54005Z" fill="white"/>
</svg>
